# xmcd
#
# Track frame offsets:
# 150
# 23630
# 42193
# 54112
# 70677
# 88915
# 101934
# 120206
# 137532
# 155374
# 169224
# 183531
# 191769
# 208985
#
# Disc length: 3122 seconds
#
# Revision: 0
# Processed by: cddbd v1.5.1PL0 Copyright (c) Steve Scherf et al.
# Submitted via: Audion 3.0.2 (http://www.panic.com/audion/)
#
DISCID=bd0c300e
DTITLE=Various Artist - SilentNightXmasDreams
DYEAR=1900
DGENRE=
TTITLE0=Silent Night
TTITLE1=Lo! HowARoseE'reBloomin
TTITLE2=Ave Maria
TTITLE3=Away in a Manger
TTITLE4=Pastoral Symphony
TTITLE5=DieBotschaft
TTITLE6=O Lil TownBethlehem
TTITLE7=Joy o Man's Desring
TTITLE8=Angles we have heard on hi
TTITLE9=O Come Emmanuel
TTITLE10=Little Drummer Boy
TTITLE11=Toyland
TTITLE12=What Child Is This
TTITLE13=Evening Prayer
EXTD=
EXTT0=
EXTT1=
EXTT2=
EXTT3=
EXTT4=
EXTT5=
EXTT6=
EXTT7=
EXTT8=
EXTT9=
EXTT10=
EXTT11=
EXTT12=
EXTT13=
PLAYORDER=
